<svg width="52" height="52" viewBox="0 0 52 52" fill="none" xmlns="http://www.w3.org/2000/svg">
<g id="Frame 33895">
<rect width="52" height="52" rx="26" fill="#FFDBD1" fill-opacity="0.4"/>
<g id="Group">
<path id="Vector" d="M43.864 27.2788C43.864 27.2788 42.0606 33.2655 32.8525 29.0469V21.9746C32.8525 21.9746 38.3406 24.8884 42.4001 24.1635C44.6243 23.7462 43.864 27.2788 43.864 27.2788Z" fill="#078C81"/>
<g id="Group_2">
<path id="Vector_2" d="M37.3081 46.6004C30.8901 44.019 28.779 40.8118 29.3271 36.1936H22.2548C22.8029 40.8118 20.6919 44.019 14.2738 46.6004C7.85575 49.1818 7 52.0001 7 52.0001H44.5819C44.5819 52.0001 43.7227 49.1676 37.3081 46.6004Z" fill="#E83F53"/>
<path id="Vector_3" d="M17.6758 44.9279L17.8667 45.08C20.2784 47.0071 23.0189 48.0255 25.7983 48.0255C28.7011 47.9795 31.5006 46.9399 33.7298 45.08L33.9207 44.9279C33.7015 44.7971 33.4893 44.6627 33.2878 44.5283C31.0635 46.2964 28.514 47.3183 25.7983 47.3183C23.0825 47.3183 20.533 46.3035 18.3088 44.5283C18.1072 44.6627 17.895 44.7971 17.6758 44.9279Z" fill="white"/>
<g id="Group_3">
<path id="Vector_4" d="M18.3047 44.528C20.5289 46.2961 23.0785 47.318 25.7942 47.318C28.5099 47.318 31.0595 46.3031 33.2837 44.528C29.9986 42.3179 28.9095 39.6481 29.3232 36.1792H22.251C22.6824 39.6481 21.5933 42.3179 18.3047 44.528Z" fill="#FD9A8B"/>
<path id="Vector_5" d="M29.3265 36.1792H22.2543C22.5301 38.4989 22.1305 40.4614 20.8398 42.1694C22.3479 43.0154 24.047 43.462 25.7761 43.467C27.5052 43.4719 29.2069 43.035 30.7198 42.1977C29.4538 40.4827 29.0472 38.513 29.3265 36.1792Z" fill="#FD7058"/>
</g>
</g>
<g id="Group_4">
<g id="Group_5">
<path id="Vector_6" d="M16.9683 28.4777C18.1141 30.67 17.6331 33.1807 15.9075 34.0895C14.1819 34.9983 11.8339 33.9586 10.6917 31.7698C9.54956 29.5809 10.0234 27.0667 11.7526 26.158C13.4817 25.2492 15.8297 26.2888 16.9683 28.4777Z" fill="#FD8977"/>
<path id="Vector_7" d="M15.9606 32.6611C15.9606 32.5727 15.9394 32.495 15.9288 32.4101C15.9409 32.4613 15.9492 32.5133 15.9536 32.5657C15.9552 32.1922 15.8918 31.8212 15.7662 31.4695C15.5331 30.428 14.9913 29.4811 14.2115 28.7525C13.4318 28.0238 12.4503 27.5473 11.3955 27.3853C12.7835 28.1876 13.988 29.2717 14.9316 30.5678C13.6869 30.0586 11.7491 31.1335 11.7491 31.1335C14.0335 30.5289 15.0766 31.031 15.554 31.6145C15.7292 31.9466 15.8657 32.2978 15.9606 32.6611Z" fill="#FD5F47"/>
</g>
<g id="Group_6">
<path id="Vector_8" d="M34.5361 28.4777C33.3904 30.67 33.8713 33.1807 35.597 34.0895C37.3226 34.9983 39.6706 33.9586 40.8163 31.7698C41.962 29.5809 41.4811 27.0667 39.7554 26.158C38.0298 25.2492 35.6818 26.2888 34.5361 28.4777Z" fill="#FD8977"/>
<path id="Vector_9" d="M35.54 32.6611C35.54 32.5727 35.5648 32.495 35.5719 32.4101C35.5719 32.4702 35.5507 32.5232 35.5471 32.5657C35.5465 32.1919 35.6111 31.821 35.7381 31.4695C35.9711 30.428 36.513 29.4811 37.2927 28.7525C38.0725 28.0238 39.0539 27.5473 40.1087 27.3853C38.7204 28.1871 37.5157 29.2713 36.5726 30.5678C37.8208 30.0586 39.7551 31.1335 39.7551 31.1335C37.4672 30.5289 36.4276 31.031 35.9502 31.6145C35.7752 31.9471 35.6376 32.2981 35.54 32.6611Z" fill="#FD5F47"/>
</g>
</g>
<path id="Vector_10" d="M37.9552 23.4141C37.9552 23.4141 39.0407 32.5656 34.419 33.7466L30.5293 27.7953L32.5166 16.5752L37.9552 23.4141Z" fill="#1E1C36"/>
<path id="Vector_11" d="M13.496 22.523C13.496 22.523 12.8984 30.2035 16.3815 32.6682L18.8108 16.0696L13.496 22.523Z" fill="#1E1C36"/>
<g id="Group_7">
<path id="Vector_12" d="M22.5484 16.02C20.6149 16.0199 18.7594 16.7827 17.3849 18.1426C16.0104 19.5025 15.2279 21.3498 15.2074 23.2832L15.1367 30.2812C15.1367 36.6781 19.8857 41.8656 25.7451 41.8656C31.6044 41.8656 36.3535 36.6781 36.3535 30.2812L36.3322 22.8554C36.3276 21.0409 35.6035 19.3023 34.3188 18.021C33.0341 16.7396 31.2937 16.02 29.4792 16.02H22.5484Z" fill="#EBB084"/>
<path id="Vector_13" opacity="0.49" d="M36.3389 24.8462V22.8554C36.3342 21.0409 35.6102 19.3023 34.3255 18.021C33.0408 16.7396 31.3004 16.02 29.4859 16.02H22.548C20.6145 16.0199 18.759 16.7827 17.3845 18.1426C16.01 19.5025 15.2275 21.3498 15.207 23.2832V23.453C19.3231 22.523 26.6146 21.8476 36.3389 24.8462Z" fill="#FD7058"/>
<g id="Group_8">
<g id="Group_9">
<path id="Vector_14" d="M31.2145 27.2229C31.2145 28.0575 30.9316 28.7329 30.5816 28.7329C30.2315 28.7329 29.9521 28.0575 29.9521 27.2229C29.9521 26.3884 30.235 25.7166 30.5816 25.7166C30.9281 25.7166 31.2145 26.392 31.2145 27.2229Z" fill="#25110D"/>
<path id="Vector_15" d="M33.5486 25.5751C33.63 25.5256 30.1398 23.3226 27.9863 23.4004C27.9616 23.4357 28.0288 21.4767 30.886 22.5022C33.6583 23.6443 33.5097 25.6069 33.5486 25.5751Z" fill="#1E1C36"/>
</g>
<g id="Group_10">
<path id="Vector_16" d="M20.9204 28.7293C21.2681 28.7293 21.5499 28.0549 21.5499 27.2229C21.5499 26.391 21.2681 25.7166 20.9204 25.7166C20.5728 25.7166 20.291 26.391 20.291 27.2229C20.291 28.0549 20.5728 28.7293 20.9204 28.7293Z" fill="#25110D"/>
<path id="Vector_17" d="M17.6323 25.5751C17.5509 25.5256 21.0411 23.3226 23.1946 23.4004C23.2229 23.4357 23.1521 21.4767 20.295 22.5022C17.5262 23.6443 17.657 25.6069 17.6323 25.5751Z" fill="#1E1C36"/>
</g>
<g id="Group_11">
<path id="Vector_18" d="M19.4079 32.3428C19.3661 32.3435 19.3248 32.3338 19.2877 32.3145C19.2213 32.2824 19.1703 32.2254 19.1458 32.1558C19.1213 32.0863 19.1252 32.0099 19.1569 31.9432L20.0373 30.1221C20.0524 30.0877 20.0743 30.0566 20.1017 30.0308C20.1291 30.005 20.1614 29.985 20.1967 29.972C20.232 29.959 20.2696 29.9533 20.3071 29.9552C20.3447 29.957 20.3815 29.9665 20.4153 29.9829C20.4492 29.9994 20.4793 30.0225 20.504 30.0509C20.5287 30.0792 20.5474 30.1123 20.559 30.1481C20.5706 30.1839 20.5748 30.2216 20.5715 30.2591C20.5681 30.2966 20.5572 30.333 20.5395 30.3661L19.659 32.1872C19.6365 32.2346 19.6009 32.2744 19.5564 32.302C19.5119 32.3296 19.4603 32.3438 19.4079 32.3428Z" fill="#FD5F44"/>
<path id="Vector_19" d="M17.6503 32.3428C17.6085 32.344 17.567 32.3343 17.5301 32.3145C17.4969 32.299 17.4671 32.277 17.4425 32.2499C17.4179 32.2227 17.399 32.1909 17.3868 32.1563C17.3746 32.1218 17.3694 32.0851 17.3716 32.0485C17.3737 32.0119 17.3831 31.9761 17.3993 31.9432L18.2798 30.1221C18.2948 30.0877 18.3167 30.0566 18.3441 30.0308C18.3715 30.005 18.4038 29.985 18.4391 29.972C18.4744 29.959 18.512 29.9533 18.5495 29.9552C18.5871 29.957 18.6239 29.9665 18.6578 29.9829C18.6916 29.9994 18.7217 30.0225 18.7464 30.0509C18.7711 30.0792 18.7898 30.1123 18.8014 30.1481C18.813 30.1839 18.8172 30.2216 18.8139 30.2591C18.8105 30.2966 18.7997 30.333 18.7819 30.3661L17.9014 32.1872C17.8783 32.234 17.8425 32.2734 17.7981 32.3009C17.7537 32.3284 17.7025 32.3429 17.6503 32.3428Z" fill="#FD5F44"/>
</g>
<g id="Group_12">
<path id="Vector_20" d="M31.9264 32.3428C31.8742 32.3429 31.823 32.3284 31.7786 32.3009C31.7342 32.2734 31.6985 32.234 31.6753 32.1872L30.7948 30.3661C30.7771 30.333 30.7662 30.2966 30.7628 30.2591C30.7595 30.2216 30.7637 30.1839 30.7753 30.1481C30.7869 30.1123 30.8056 30.0792 30.8303 30.0509C30.855 30.0225 30.8851 29.9994 30.919 29.9829C30.9528 29.9665 30.9896 29.957 31.0272 29.9552C31.0647 29.9533 31.1023 29.959 31.1376 29.972C31.1729 29.985 31.2052 30.005 31.2326 30.0308C31.26 30.0566 31.2819 30.0877 31.297 30.1221L32.1775 31.9432C32.1936 31.9761 32.203 32.0119 32.2052 32.0485C32.2073 32.0851 32.2021 32.1218 32.1899 32.1563C32.1778 32.1909 32.1588 32.2227 32.1342 32.2499C32.1096 32.277 32.0798 32.299 32.0466 32.3145C32.0095 32.3338 31.9682 32.3435 31.9264 32.3428Z" fill="#FD5F44"/>
<path id="Vector_21" d="M33.6842 32.3427C33.632 32.3428 33.5808 32.3283 33.5364 32.3008C33.492 32.2733 33.4563 32.2339 33.4331 32.1871L32.5562 30.366C32.5241 30.2993 32.5196 30.2227 32.5434 30.1526C32.5671 30.0825 32.6174 30.0246 32.6835 29.9911C32.7507 29.9603 32.8274 29.9567 32.8972 29.9811C32.9671 30.0055 33.0248 30.056 33.0583 30.122L33.9353 31.9431C33.9515 31.9758 33.9611 32.0114 33.9635 32.0478C33.9659 32.0842 33.961 32.1208 33.9492 32.1553C33.9373 32.1899 33.9188 32.2217 33.8945 32.249C33.8703 32.2763 33.8409 32.2985 33.808 32.3144C33.7698 32.3341 33.7272 32.3438 33.6842 32.3427Z" fill="#FD5F44"/>
</g>
<path id="Vector_22" d="M23.2549 34.3692C23.1205 34.2808 22.9968 34.1924 22.9013 34.1075C22.8629 34.0876 22.8294 34.0595 22.803 34.0252C22.7766 33.991 22.758 33.9514 22.7485 33.9092C22.739 33.867 22.7388 33.8233 22.7479 33.781C22.7571 33.7388 22.7754 33.699 22.8015 33.6645C22.8276 33.6301 22.8609 33.6017 22.8991 33.5815C22.9373 33.5612 22.9795 33.5496 23.0227 33.5473C23.0658 33.545 23.109 33.5522 23.1491 33.5683C23.1892 33.5845 23.2253 33.6092 23.2549 33.6407C23.3575 33.7221 25.7514 35.5962 27.4558 33.8918C27.5122 33.8356 27.5885 33.8041 27.668 33.8041C27.7475 33.8041 27.8238 33.8356 27.8802 33.8918C27.9079 33.9194 27.9298 33.9522 27.9448 33.9883C27.9598 34.0244 27.9675 34.0631 27.9675 34.1022C27.9675 34.1413 27.9598 34.18 27.9448 34.2161C27.9298 34.2522 27.9079 34.285 27.8802 34.3126C26.3985 35.8013 24.3829 35.1047 23.2549 34.3692Z" fill="#FD5F44"/>
</g>
</g>
<path id="Vector_23" d="M23.0044 31.7486C23.0044 31.7486 25.7909 33.1631 28.5738 31.7486C28.5738 31.7486 29.1431 29.8073 25.7909 29.8179C22.5482 29.8108 23.0044 31.7486 23.0044 31.7486Z" fill="#FD5F44"/>
<g id="Group_13">
<path id="Vector_24" d="M37.9556 23.4141C37.9556 23.4141 22.3259 18.6969 13.4962 22.523C13.4962 22.523 13.033 15.3941 15.1794 13.0497C17.248 10.7866 21.7212 8.58002 26.1414 8.72853C31.5092 8.90888 36.7851 11.8474 37.51 13.1204C40.1232 17.7421 37.9556 23.4141 37.9556 23.4141Z" fill="#0AC2B2"/>
<path id="Vector_25" d="M20.123 19.7576V21.0942C23.8607 20.8538 27.8176 21.2923 31.0532 21.851L31.2477 20.1112L25.3777 17.0029L20.123 19.7576Z" fill="#078C81"/>
<path id="Vector_26" d="M24.3555 8.73905C24.3555 9.14924 25.236 9.48164 26.3216 9.48164C27.4071 9.48164 28.2876 9.14924 28.2876 8.73905C28.2876 8.32886 27.4071 8 26.3216 8C25.236 8 24.3555 8.33239 24.3555 8.73905Z" fill="#078C81"/>
<path id="Vector_27" d="M31.2477 20.1114C31.2477 20.1114 25.1903 18.3433 20.123 19.7578C20.123 19.7578 20.8303 14.5703 25.2327 13.9373C29.6352 13.3043 31.2477 20.1114 31.2477 20.1114Z" fill="#1E1C36"/>
</g>
</g>
</g>
</svg>
