<svg width="24" height="25" viewBox="0 0 24 25" fill="none" xmlns="http://www.w3.org/2000/svg">
<g id="ink_cart" clip-path="url(#clip0_1228_3829)">
<path id="Vector" d="M18.8368 16.9092H10.231C9.4479 16.9036 8.68937 16.6348 8.07745 16.1461C7.46554 15.6573 7.03579 14.9769 6.85733 14.2143L5.4859 8.63946C5.35973 8.12182 5.35326 7.58222 5.46699 7.0617C5.58072 6.54119 5.81166 6.05346 6.14223 5.63561C6.4728 5.21777 6.89431 4.88081 7.37469 4.65037C7.85508 4.41992 8.38169 4.30206 8.91447 4.30575H20.2288C20.7615 4.30206 21.2882 4.41992 21.7685 4.65037C22.2489 4.88081 22.6704 5.21777 23.001 5.63561C23.3316 6.05346 23.5625 6.54119 23.6762 7.0617C23.79 7.58222 23.7835 8.12182 23.6573 8.63946L22.2859 14.228C22.1007 15.0001 21.6583 15.6862 21.0315 16.1734C20.4046 16.6607 19.6306 16.9202 18.8368 16.9092ZM8.87333 6.02003C8.60229 6.02086 8.33495 6.083 8.09133 6.20181C7.84771 6.32061 7.63414 6.493 7.46659 6.70606C7.29905 6.91911 7.18188 7.16732 7.12387 7.43208C7.06586 7.69684 7.06851 7.9713 7.13162 8.23489L8.50305 13.8235C8.59593 14.2151 8.8186 14.5638 9.13484 14.8128C9.45107 15.0618 9.84226 15.1965 10.2448 15.1949H18.8368C19.2393 15.1965 19.6304 15.0618 19.9467 14.8128C20.2629 14.5638 20.4856 14.2151 20.5785 13.8235L21.9499 8.23489C22.0144 7.97119 22.018 7.69627 21.9606 7.43094C21.9031 7.16562 21.7861 6.91684 21.6182 6.70344C21.4504 6.49005 21.2363 6.31762 20.992 6.19922C20.7477 6.08082 20.4797 6.01954 20.2082 6.02003H8.87333Z" fill="#FCEBFF"/>
<path id="Vector_2" d="M6.4869 10.1C6.29107 10.0977 6.10194 10.0284 5.95099 9.90361C5.80003 9.77885 5.69634 9.60616 5.65719 9.41427L4.42976 4.08627C4.31642 3.60091 4.0417 3.16838 3.65057 2.85946C3.25943 2.55054 2.77503 2.38351 2.27662 2.3857H1.1589C0.931572 2.3857 0.713555 2.29539 0.552809 2.13465C0.392064 1.9739 0.301758 1.75588 0.301758 1.52855C0.301758 1.30123 0.392064 1.08321 0.552809 0.922462C0.713555 0.761716 0.931572 0.671411 1.1589 0.671411H2.27662C3.16242 0.668316 4.0231 0.96568 4.71807 1.51493C5.41304 2.06418 5.90123 2.83286 6.1029 3.69541L7.32347 9.02341C7.34989 9.13285 7.35431 9.24645 7.33648 9.35761C7.31865 9.46878 7.27891 9.57529 7.21959 9.67098C7.16026 9.76667 7.08252 9.84962 6.99089 9.91502C6.89925 9.98043 6.79553 10.027 6.68576 10.052C6.62133 10.0749 6.55468 10.091 6.4869 10.1Z" fill="#FCEBFF"/>
<path id="Vector_3" d="M10.361 24.3286C9.81854 24.3286 9.28823 24.1677 8.83717 23.8664C8.38611 23.565 8.03455 23.1366 7.82695 22.6354C7.61935 22.1342 7.56503 21.5827 7.67087 21.0506C7.7767 20.5186 8.03793 20.0299 8.42153 19.6463C8.80512 19.2627 9.29385 19.0014 9.82592 18.8956C10.358 18.7898 10.9095 18.8441 11.4107 19.0517C11.9119 19.2593 12.3402 19.6108 12.6416 20.0619C12.943 20.513 13.1039 21.0433 13.1039 21.5858C13.1039 22.3132 12.8149 23.0109 12.3005 23.5252C11.7861 24.0396 11.0885 24.3286 10.361 24.3286ZM10.361 20.5298C10.1549 20.5298 9.95336 20.5909 9.78196 20.7054C9.61056 20.8199 9.47696 20.9827 9.39808 21.1732C9.31919 21.3636 9.29855 21.5732 9.33876 21.7754C9.37898 21.9776 9.47825 22.1633 9.62401 22.309C9.76978 22.4548 9.9555 22.5541 10.1577 22.5943C10.3599 22.6345 10.5694 22.6139 10.7599 22.535C10.9503 22.4561 11.1131 22.3225 11.2277 22.1511C11.3422 21.9797 11.4033 21.7782 11.4033 21.572C11.4033 21.2956 11.2935 21.0305 11.098 20.835C10.9026 20.6396 10.6375 20.5298 10.361 20.5298Z" fill="#FCEBFF"/>
<path id="Vector_4" d="M19.8376 24.3286C19.2951 24.3286 18.7648 24.1677 18.3137 23.8664C17.8627 23.565 17.5111 23.1366 17.3035 22.6354C17.0959 22.1342 17.0416 21.5827 17.1474 21.0506C17.2533 20.5186 17.5145 20.0299 17.8981 19.6463C18.2817 19.2627 18.7704 19.0014 19.3025 18.8956C19.8345 18.7898 20.386 18.8441 20.8872 19.0517C21.3884 19.2593 21.8168 19.6108 22.1182 20.0619C22.4196 20.513 22.5804 21.0433 22.5804 21.5858C22.5804 22.3132 22.2915 23.0109 21.7771 23.5252C21.2627 24.0396 20.565 24.3286 19.8376 24.3286ZM19.8376 20.5298C19.6317 20.5311 19.4309 20.5934 19.2604 20.7087C19.0899 20.8241 18.9574 20.9873 18.8795 21.1779C18.8017 21.3685 18.782 21.5778 18.823 21.7796C18.864 21.9813 18.9638 22.1664 19.1099 22.3114C19.2559 22.4565 19.4416 22.5551 19.6436 22.5948C19.8456 22.6344 20.0548 22.6134 20.2449 22.5343C20.4349 22.4552 20.5973 22.3216 20.7115 22.1504C20.8258 21.9791 20.8867 21.7779 20.8867 21.572C20.8867 21.4346 20.8595 21.2985 20.8067 21.1716C20.7539 21.0447 20.6765 20.9295 20.579 20.8326C20.4815 20.7357 20.3658 20.6591 20.2386 20.6071C20.1113 20.5551 19.975 20.5288 19.8376 20.5298Z" fill="#FCEBFF"/>
<path id="Vector_5" d="M19.8375 20.5298H8.41352C7.70608 20.5298 7.02761 20.2488 6.52737 19.7485C6.02713 19.2483 5.74609 18.5698 5.74609 17.8624C5.74609 17.1549 6.02713 16.4765 6.52737 15.9762C7.02761 15.476 7.70608 15.1949 8.41352 15.1949H10.2307C10.458 15.1949 10.676 15.2853 10.8368 15.446C10.9975 15.6067 11.0878 15.8248 11.0878 16.0521C11.0878 16.2794 10.9975 16.4974 10.8368 16.6582C10.676 16.8189 10.458 16.9092 10.2307 16.9092H8.41352C8.16073 16.9092 7.9183 17.0097 7.73955 17.1884C7.5608 17.3671 7.46038 17.6096 7.46038 17.8624C7.46038 18.1152 7.5608 18.3576 7.73955 18.5363C7.9183 18.7151 8.16073 18.8155 8.41352 18.8155H19.8375C20.0648 18.8155 20.2829 18.9058 20.4436 19.0666C20.6044 19.2273 20.6947 19.4453 20.6947 19.6727C20.6947 19.9 20.6044 20.118 20.4436 20.2788C20.2829 20.4395 20.0648 20.5298 19.8375 20.5298Z" fill="#FCEBFF"/>
</g>
<defs>
<clipPath id="clip0_1228_3829">
<rect width="24" height="24" fill="white" transform="translate(0 0.5)"/>
</clipPath>
</defs>
</svg>
