<svg width="28" height="28" viewBox="0 0 28 28" fill="none" xmlns="http://www.w3.org/2000/svg">
<path d="M24.8178 13.933C24.7925 11.8587 24.1786 9.8349 23.0483 8.09989C21.918 6.36488 20.3187 4.99095 18.4384 4.13991C16.558 3.28888 14.4752 2.99617 12.4351 3.29626C10.395 3.59637 8.48265 4.47675 6.92321 5.83379C5.36375 7.19081 4.22217 8.96794 3.6329 10.9559C3.04364 12.9438 3.03123 15.0598 3.59714 17.0546C4.16306 19.0494 5.28372 20.8399 6.82715 22.2154C8.37057 23.5908 10.2725 24.4939 12.3089 24.8181V17.1033H9.60431V13.933H12.3089V11.5247C12.2463 10.9647 12.3066 10.3977 12.4857 9.86377C12.6647 9.3298 12.958 8.84187 13.3449 8.43443C13.7318 8.02697 14.2028 7.70993 14.7248 7.50569C15.2468 7.30143 15.8071 7.21493 16.3659 7.25232C17.177 7.26349 17.9862 7.33627 18.7865 7.47002V10.1913H17.4342C17.201 10.1617 16.9641 10.1852 16.7413 10.2601C16.5183 10.335 16.3149 10.4593 16.1461 10.6239C15.9773 10.7885 15.8475 10.9891 15.7662 11.2109C15.6848 11.4328 15.6541 11.6703 15.6762 11.9057V13.9602H18.6783L18.1915 17.1305H15.6897V24.7501C18.2454 24.3434 20.5717 23.0285 22.2464 21.0439C23.9211 19.0592 24.8334 16.5365 24.8178 13.933Z" fill="black"/>
</svg>
