<svg width="52" height="52" viewBox="0 0 52 52" fill="none" xmlns="http://www.w3.org/2000/svg">
<g id="Frame 440">
<g clip-path="url(#clip0_810_8363)">
<rect width="52" height="52" rx="26" fill="#FFDBD1" fill-opacity="0.4"/>
<g id="OBJECTS">
<g id="Group">
<g id="Group_2">
<path id="Vector" d="M8.23434 29.3152C8.55536 27.331 8.90029 25.2853 9.97947 23.588C10.946 22.0683 12.5306 20.7022 12.4384 18.9025C12.3906 18.0145 11.9227 17.1949 11.8578 16.3035C11.7553 14.8897 12.797 13.5236 14.1425 13.0762C14.6509 12.8975 15.1915 12.8288 15.7284 12.8748C16.2654 12.9207 16.7865 13.0802 17.2571 13.3426V13.2982C18.6744 9.01223 25.9042 7.40028 29.7394 8.19943C31.8177 8.65668 33.741 9.64727 35.3201 11.0737C36.8992 12.5001 38.0796 14.3131 38.7452 16.3343C38.9791 17.2601 39.2641 18.1722 39.5989 19.0664C41.2485 22.823 44.9129 22.4815 46.0877 28.5775C47.0747 33.7344 44.1957 39.3591 41.3065 41.2784C33.7556 46.2782 20.1156 44.9804 15.3173 43.3514C6.81706 40.4725 7.89282 31.4326 8.23434 29.3152Z" fill="#E83F53"/>
<path id="Vector_2" d="M10.7615 31.4529C10.7615 31.4529 10.2697 37.6548 13.8146 42.7228C14.2988 42.9612 14.7986 43.1665 15.3104 43.3375C19.6921 44.8265 31.447 46.0321 39.2164 42.4257C40.924 39.639 41.6924 35.9779 41.0162 31.4392L10.7615 31.4529Z" fill="#BF2133"/>
<path id="Vector_3" d="M29.0152 10.0026C35.2683 10.9998 39.0488 17.2905 39.0488 17.2905C38.9634 16.9695 38.8746 16.6485 38.7756 16.3343C38.1071 14.3129 36.9234 12.5005 35.3413 11.0759C33.7591 9.65119 31.833 8.66335 29.7528 8.20968C25.9176 7.41054 18.6878 9.02248 17.2705 13.3085V13.3529C17.2705 13.3529 22.7484 9.00199 29.0152 10.0026Z" fill="#FF7081"/>
<path id="Vector_4" d="M14.1427 13.0765C13.564 13.2738 13.049 13.6229 12.6513 14.0873C12.2536 14.5517 11.9879 15.1143 11.8818 15.7164C13.411 14.4685 15.2411 13.6442 17.189 13.3258C16.7265 13.0745 16.2167 12.9225 15.6921 12.8795C15.1676 12.8366 14.6398 12.9037 14.1427 13.0765Z" fill="#FF7081"/>
</g>
<g id="Group_3">
<g id="Group_4">
<path id="Vector_5" d="M15.2385 46.9507C21.2423 44.5362 23.2163 41.5377 22.704 37.2175H29.302C28.7898 41.5377 30.7671 44.5362 36.7675 46.9507C42.7679 49.3652 43.5739 52.0017 43.5739 52.0017H8.43555C8.43555 52.0017 9.2381 49.3652 15.2385 46.9507Z" fill="#FFDF57"/>
<g id="Group_5">
<path id="Vector_6" d="M29.3022 37.2175H22.7042C23.0764 40.3595 22.1305 42.8013 19.2891 44.8299C20.1729 45.7752 21.2368 46.5342 22.4183 47.0622C23.5998 47.5903 24.8749 47.8767 26.1687 47.9047C27.4625 47.9327 28.7489 47.7017 29.9521 47.2253C31.1553 46.7488 32.2511 46.0366 33.175 45.1304C29.975 43.0437 28.9129 40.5166 29.3022 37.2175Z" fill="#FFA3A3"/>
<path id="Vector_7" d="M26.816 37.2175H22.7178C22.9603 39.2666 22.6427 41.0015 21.6113 42.5281C22.9529 43.2583 24.4624 43.6245 25.9895 43.5902C27.5457 43.5223 29.0837 43.229 30.5556 42.7193C29.4217 41.1449 29.0666 39.3417 29.3159 37.2175H26.816Z" fill="#FF8282"/>
</g>
</g>
<g id="Group_6">
<g id="Group_7">
<g id="Group_8">
<path id="Vector_8" d="M17.4204 29.4239C18.5235 31.5345 18.0624 33.9558 16.3959 34.8301C14.7293 35.7044 12.4719 34.7037 11.3688 32.5932C10.2657 30.4826 10.7267 28.0647 12.3933 27.1904C14.0599 26.3161 16.3173 27.3339 17.4204 29.4239Z" fill="#FF8282"/>
<path id="Vector_9" d="M16.4539 33.4535C16.4539 33.3682 16.43 33.293 16.4197 33.2111C16.4197 33.2725 16.4402 33.3203 16.447 33.3613C16.4476 33.0004 16.3852 32.6421 16.2626 32.3026C16.0382 31.2982 15.5164 30.3848 14.7653 29.6812C14.0142 28.9776 13.0686 28.5166 12.0518 28.3582C13.3938 29.1309 14.5576 30.1783 15.4669 31.4318C14.2682 30.9434 12.4103 31.9816 12.4103 31.9816C14.6131 31.3976 15.6137 31.8792 16.0748 32.4392C16.2382 32.7623 16.3654 33.1025 16.4539 33.4535Z" fill="#FF4F4F"/>
</g>
<g id="Group_9">
<path id="Vector_10" d="M34.3463 29.4239C33.2432 31.5345 33.7043 33.9558 35.3709 34.8301C37.0374 35.7044 39.2948 34.7037 40.3979 32.5932C41.501 30.4826 41.04 28.0647 39.3734 27.1904C37.7068 26.3161 35.4494 27.3339 34.3463 29.4239Z" fill="#FF8282"/>
<path id="Vector_11" d="M35.3164 33.4535C35.3164 33.3682 35.3369 33.293 35.3471 33.2111C35.3357 33.2605 35.3277 33.3107 35.3232 33.3613C35.3217 33.0006 35.3829 32.6424 35.5042 32.3026C35.7287 31.2982 36.2504 30.3848 37.0015 29.6812C37.7526 28.9776 38.6982 28.5166 39.7151 28.3582C38.3745 29.1329 37.2111 30.1799 36.3 31.4318C37.5021 30.9434 39.3565 31.9816 39.3565 31.9816C37.1537 31.3976 36.1531 31.8792 35.6921 32.4392C35.5285 32.7619 35.4024 33.1022 35.3164 33.4535Z" fill="#FF4F4F"/>
</g>
</g>
<g id="Group_10">
<g id="Group_11">
<path id="Vector_12" d="M25.976 41.8461C33.339 41.4328 36.3648 37.1947 36.3648 31.4538V25.0163C36.3652 24.002 36.1658 22.9975 35.778 22.0603C35.3902 21.1231 34.8215 20.2715 34.1044 19.5541C33.3873 18.8367 32.536 18.2676 31.5989 17.8794C30.6618 17.4911 29.6575 17.2913 28.6432 17.2913H23.3053C19.0398 17.2913 18.0221 19.6989 17.2537 25.754C17.0659 27.2259 15.5461 29.0803 15.5837 31.4538C15.6349 37.1947 21.5021 42.0988 25.976 41.8461Z" fill="#FDBFA8"/>
<path id="Vector_13" opacity="0.47" d="M25.7441 35.6648C25.7441 35.6648 28.1347 35.8799 29.2447 34.4524C29.2447 34.4524 29.3232 35.8185 28.1108 36.1975C26.8985 36.5766 25.7441 35.6648 25.7441 35.6648Z" fill="#FF8282"/>
</g>
<g id="Group_12">
<g id="Group_13">
<path id="Vector_14" d="M31.122 28.5779C31.122 29.3805 30.8385 30.0327 30.4868 30.0327C30.135 30.0327 29.8516 29.3805 29.8516 28.5779C29.8516 27.7753 30.135 27.123 30.4868 27.123C30.8385 27.123 31.122 27.7719 31.122 28.5779Z" fill="#2E230E"/>
<g id="Group_14">
<path id="Vector_15" d="M20.8975 28.5779C20.8975 29.3805 21.1809 30.0328 21.5327 30.0328C21.8844 30.0328 22.185 29.3839 22.185 28.5779C22.185 27.7719 21.9015 27.1196 21.5498 27.1231C21.198 27.1265 20.8975 27.7719 20.8975 28.5779Z" fill="#2E230E"/>
<path id="Vector_16" d="M18.377 26.8499C18.377 26.8499 21.6418 25.0946 23.3938 24.8794C23.3061 24.6213 23.1657 24.3843 22.9815 24.1834C22.7972 23.9825 22.5731 23.8222 22.3235 23.7127C22.0739 23.6031 21.8042 23.5467 21.5316 23.5471C21.2591 23.5475 20.9895 23.6046 20.7402 23.7149C20.074 23.9347 19.4907 24.3527 19.0684 24.9129C18.6461 25.4732 18.4049 26.1489 18.377 26.8499Z" fill="#A31727"/>
<path id="Vector_17" d="M33.5705 26.85C33.5705 26.85 30.3057 25.0946 28.5537 24.8794C28.6418 24.6216 28.7825 24.3849 28.9668 24.1844C29.1512 23.9838 29.3752 23.8237 29.6246 23.7142C29.8741 23.6047 30.1436 23.5482 30.416 23.5483C30.6885 23.5485 30.9579 23.6052 31.2073 23.7149C31.8735 23.9347 32.4568 24.3527 32.8791 24.9129C33.3014 25.4732 33.5426 26.1489 33.5705 26.85Z" fill="#A31727"/>
</g>
<path id="Vector_18" d="M27.5708 31.59C27.5832 31.7545 27.5616 31.9199 27.5071 32.0757C27.4527 32.2315 27.3667 32.3744 27.2545 32.4954C27.1423 32.6164 27.0063 32.713 26.855 32.779C26.7038 32.845 26.5405 32.8791 26.3755 32.8791C26.2104 32.8791 26.0472 32.845 25.8959 32.779C25.7447 32.713 25.6087 32.6164 25.4965 32.4954C25.3843 32.3744 25.2982 32.2315 25.2438 32.0757C25.1894 31.9199 25.1677 31.7545 25.1802 31.59C25.1802 30.9069 25.7163 29.1106 26.3789 29.1106C27.0414 29.1106 27.5708 30.9138 27.5708 31.59Z" fill="#FF8282"/>
<g id="Group_15">
<g id="Group_16">
<path id="Vector_19" d="M20.8969 33.5198C20.8547 33.5204 20.8128 33.5123 20.7739 33.4959C20.7411 33.4812 20.7116 33.4601 20.6872 33.4338C20.6628 33.4074 20.644 33.3764 20.6318 33.3426C20.6197 33.3088 20.6146 33.2728 20.6167 33.237C20.6188 33.2011 20.6281 33.166 20.6442 33.1339L21.5321 31.3751C21.567 31.3103 21.6255 31.2615 21.6954 31.2386C21.7653 31.2157 21.8413 31.2206 21.9078 31.2521C21.9694 31.2812 22.0174 31.333 22.0416 31.3967C22.0659 31.4604 22.0644 31.531 22.0375 31.5937L21.1496 33.3525C21.1276 33.4014 21.0922 33.4431 21.0475 33.4727C21.0028 33.5024 20.9505 33.5187 20.8969 33.5198Z" fill="#FF8282"/>
<path id="Vector_20" d="M19.1104 33.5198C19.0682 33.5204 19.0263 33.5123 18.9875 33.4959C18.9547 33.4812 18.9252 33.4601 18.9007 33.4338C18.8761 33.4075 18.8571 33.3766 18.8447 33.3429C18.8323 33.3092 18.8268 33.2733 18.8284 33.2374C18.83 33.2015 18.8388 33.1663 18.8543 33.1339L19.7456 31.3751C19.7805 31.3103 19.839 31.2615 19.9089 31.2386C19.9788 31.2157 20.0548 31.2206 20.1213 31.2521C20.183 31.2812 20.2309 31.333 20.2552 31.3967C20.2794 31.4604 20.2779 31.531 20.2511 31.5937L19.3631 33.3525C19.3412 33.4014 19.3057 33.4431 19.261 33.4727C19.2163 33.5024 19.164 33.5187 19.1104 33.5198Z" fill="#FF8282"/>
</g>
<g id="Group_17">
<path id="Vector_21" d="M31.6579 33.5196C31.6056 33.5203 31.554 33.5066 31.5089 33.4802C31.4637 33.4537 31.4267 33.4153 31.4018 33.3693L30.5138 31.6105C30.4881 31.5473 30.4876 31.4767 30.5123 31.4132C30.5371 31.3497 30.5853 31.298 30.647 31.269C30.7135 31.2374 30.7895 31.2326 30.8594 31.2554C30.9293 31.2783 30.9878 31.3272 31.0227 31.3919L31.9106 33.1507C31.9271 33.183 31.9366 33.2183 31.9388 33.2545C31.9409 33.2906 31.9356 33.3268 31.9231 33.3608C31.9106 33.3948 31.8912 33.4258 31.8661 33.452C31.841 33.4781 31.8109 33.4988 31.7774 33.5127C31.7385 33.5234 31.6978 33.5257 31.6579 33.5196Z" fill="#FF8282"/>
<path id="Vector_22" d="M33.0542 33.3659C33.0021 33.3657 32.951 33.3512 32.9065 33.3241C32.862 33.2971 32.8257 33.2584 32.8015 33.2122L31.9135 31.4534C31.8976 31.4215 31.8883 31.3867 31.8862 31.3511C31.8841 31.3155 31.8893 31.2798 31.9014 31.2463C31.9136 31.2127 31.9324 31.182 31.9568 31.156C31.9812 31.1299 32.0106 31.1091 32.0433 31.0948C32.11 31.0626 32.1867 31.0578 32.2569 31.0814C32.3271 31.1051 32.3853 31.1552 32.419 31.2212L33.3069 32.9766C33.3229 33.0087 33.3323 33.0438 33.3344 33.0797C33.3365 33.1155 33.3314 33.1514 33.3192 33.1852C33.3071 33.2191 33.2883 33.2501 33.2639 33.2764C33.2394 33.3028 33.2099 33.3239 33.1771 33.3386C33.1384 33.3557 33.0966 33.365 33.0542 33.3659Z" fill="#FF8282"/>
</g>
</g>
</g>
<path id="Vector_23" d="M25.9207 34.9166C25.2993 34.9172 24.6809 34.831 24.0833 34.6604C23.9969 34.6337 23.9245 34.5737 23.8823 34.4937C23.84 34.4136 23.8313 34.3201 23.8579 34.2336C23.8712 34.1904 23.8928 34.1502 23.9217 34.1154C23.9505 34.0807 23.986 34.052 24.026 34.031C24.0661 34.01 24.1098 33.9972 24.1549 33.9933C24.1999 33.9894 24.2452 33.9944 24.2882 34.0082C24.3156 34.0082 27.3619 34.9405 28.9738 32.8982C29.0295 32.8267 29.1114 32.7802 29.2013 32.769C29.2913 32.7578 29.3821 32.7828 29.4536 32.8385C29.5252 32.8942 29.5717 32.976 29.5829 33.066C29.5941 33.156 29.5691 33.2467 29.5134 33.3183C29.0801 33.8458 28.5298 34.2649 27.9061 34.5424C27.2824 34.8198 26.6026 34.948 25.9207 34.9166Z" fill="#FF8282"/>
</g>
</g>
<path id="Vector_24" d="M34.0112 15.8251L26.5218 13.9331L16.1432 17.2902L15.6719 30.4077C17.3146 28.4167 19.1451 22.1807 20.0467 18.8133C22.6251 23.4477 30.859 23.796 34.7693 23.6867C34.8103 29.3422 36.313 31.4527 36.313 31.4527L36.8696 23.5774L34.0112 15.8251Z" fill="#E83F53"/>
</g>
</g>
</g>
</g>
</g>
</g>
<defs>
<clipPath id="clip0_810_8363">
<rect width="52" height="52" rx="26" fill="white"/>
</clipPath>
</defs>
</svg>
