<svg width="24" height="25" viewBox="0 0 24 25" fill="none" xmlns="http://www.w3.org/2000/svg">
<path d="M12.0001 23.2931C11.8597 23.2922 11.7213 23.2594 11.5955 23.1971C-0.473057 16.7857 0.0960865 8.86572 0.205801 7.97429C0.216001 6.58708 0.682175 5.24174 1.53246 4.14563C2.38275 3.04952 3.56995 2.2635 4.91107 1.90873C6.25218 1.55396 7.67275 1.65013 8.95381 2.18242C10.2349 2.71472 11.3053 3.65358 12.0001 4.85429C12.6998 3.65047 13.7769 2.71097 15.0646 2.18134C16.3524 1.65171 17.7788 1.5615 19.123 1.92468C20.4672 2.28787 21.6541 3.08419 22.4998 4.19027C23.3456 5.29636 23.803 6.65047 23.8012 8.04286C23.9247 9.20172 24.2538 16.9571 12.4047 23.2177C12.2775 23.2738 12.139 23.2997 12.0001 23.2931ZM6.51437 3.42114C5.29338 3.42839 4.12486 3.91852 3.26404 4.78447C2.40323 5.65043 1.92007 6.82184 1.92009 8.04286C1.92346 8.08393 1.92346 8.12521 1.92009 8.16629C1.92009 8.46115 1.04923 15.476 12.0138 21.4691C22.8892 15.524 22.1418 8.44057 22.1075 8.17314C22.1043 8.13664 22.1043 8.09993 22.1075 8.06343V7.97429C22.0984 6.75035 21.6035 5.58016 20.7316 4.72113C19.8597 3.86211 18.6823 3.38462 17.4584 3.39372C16.2344 3.40281 15.0642 3.89774 14.2052 4.76962C13.3462 5.6415 12.8687 6.81892 12.8778 8.04286C12.8778 8.27019 12.7875 8.48821 12.6267 8.64895C12.466 8.8097 12.248 8.9 12.0207 8.9C11.7933 8.9 11.5753 8.8097 11.4146 8.64895C11.2538 8.48821 11.1635 8.27019 11.1635 8.04286C11.1635 7.43535 11.0437 6.8338 10.8111 6.27262C10.5784 5.71144 10.2373 5.20164 9.80742 4.77239C9.37753 4.34313 8.86723 4.00284 8.3057 3.77098C7.74418 3.53912 7.14245 3.42024 6.53494 3.42114H6.51437Z" fill="#FCEBFF"/>
</svg>
