<svg width="10" height="10" viewBox="0 0 10 10" fill="none" xmlns="http://www.w3.org/2000/svg">
<g clip-path="url(#clip0_1391_3680)">
<path d="M5.00009 0.147461C4.04033 0.147461 3.10213 0.432063 2.30412 0.965277C1.50611 1.49849 0.884132 2.25637 0.516848 3.14307C0.149564 4.02977 0.0534652 5.00548 0.240705 5.94679C0.427945 6.88811 0.890113 7.75277 1.56877 8.43142C2.24742 9.11007 3.11208 9.57224 4.05339 9.75948C4.99471 9.94672 5.97041 9.85062 6.85712 9.48334C7.74382 9.11605 8.5017 8.49408 9.03491 7.69607C9.56812 6.89806 9.85273 5.95985 9.85273 5.00009C9.85126 3.71354 9.33954 2.48011 8.42981 1.57038C7.52008 0.660651 6.28664 0.148924 5.00009 0.147461ZM5.00009 2.46325C5.09784 2.46325 5.19339 2.49223 5.27466 2.54654C5.35594 2.60084 5.41928 2.67803 5.45669 2.76833C5.49409 2.85864 5.50388 2.95801 5.48481 3.05388C5.46574 3.14974 5.41867 3.2378 5.34955 3.30692C5.28044 3.37604 5.19238 3.42311 5.09651 3.44217C5.00064 3.46124 4.90127 3.45146 4.81097 3.41405C4.72066 3.37665 4.64348 3.3133 4.58917 3.23203C4.53487 3.15076 4.50588 3.05521 4.50588 2.95746C4.50609 2.82655 4.55826 2.70107 4.65093 2.6086C4.7436 2.51613 4.86918 2.46423 5.00009 2.4643V2.46325ZM5.02983 7.29404C4.98945 7.28947 4.94967 7.28065 4.91115 7.26772C4.91115 7.26772 4.91115 7.27035 4.90852 7.26772C4.79446 7.22688 4.69763 7.14854 4.63386 7.04553C4.5701 6.94252 4.54316 6.82092 4.55746 6.70062L4.78957 4.66588C4.72531 4.56576 4.62959 4.48985 4.51746 4.45009C4.49074 4.44072 4.46315 4.43402 4.43509 4.43009C4.48556 4.33476 4.56371 4.25694 4.65925 4.20687C4.75479 4.1568 4.86325 4.13682 4.97036 4.14957C5.01072 4.15426 5.05048 4.16307 5.08904 4.17588C5.2036 4.2164 5.301 4.29464 5.36526 4.39778C5.42953 4.50091 5.45684 4.62282 5.44273 4.74351C5.44273 4.74772 5.44088 4.75141 5.44036 4.75535C5.43983 4.7593 5.44036 4.76483 5.44036 4.76957L5.21062 6.77825C5.27394 6.87933 5.36997 6.95568 5.48273 6.99457C5.50945 7.00394 5.53704 7.01064 5.56509 7.01456C5.51463 7.1099 5.43648 7.18772 5.34094 7.23779C5.2454 7.28786 5.13694 7.30784 5.02983 7.29509V7.29404Z" fill="#98A2B3"/>
</g>
<defs>
<clipPath id="clip0_1391_3680">
<rect width="10" height="10" fill="white"/>
</clipPath>
</defs>
</svg>
