<svg width="24" height="24" viewBox="0 0 24 24" fill="none" xmlns="http://www.w3.org/2000/svg">
<g id="love">
<path id="Vector" d="M11.9998 22.7953C11.8591 22.7952 11.7205 22.7611 11.5959 22.6958C-0.474047 16.2885 0.0985255 8.36578 0.205497 7.47435C0.218037 6.08834 0.685512 4.74481 1.53604 3.65038C2.38657 2.55594 3.57305 1.77118 4.91305 1.41679C6.25305 1.06239 7.67236 1.15797 8.95274 1.68883C10.2331 2.21969 11.3037 3.15644 11.9998 4.35504C12.6982 3.15221 13.7735 2.21299 15.0593 1.68262C16.3452 1.15224 17.7699 1.06025 19.1132 1.42087C20.4566 1.78149 21.6437 2.57463 22.4911 3.67765C23.3384 4.78067 23.7987 6.13213 23.8009 7.52304C23.9244 8.69835 24.2405 16.412 12.4037 22.6958C12.2791 22.7613 12.1405 22.7955 11.9998 22.7953ZM6.53327 2.91915C5.30978 2.9206 4.13681 3.40727 3.27168 4.27241C2.40654 5.13755 1.91986 6.31052 1.91841 7.53401C1.9183 7.57693 1.91509 7.61978 1.90881 7.66224C1.86767 7.95572 1.03247 14.9665 11.9998 20.9651C22.8745 15.0145 22.1285 7.96395 22.0908 7.66224C22.0866 7.62673 22.0846 7.59101 22.0846 7.55526C22.0846 7.54086 22.0846 7.52304 22.0846 7.50452C22.0809 6.28059 21.5911 5.10826 20.723 4.24544C19.8549 3.38262 18.6796 2.89999 17.4557 2.90372C16.2317 2.90745 15.0594 3.39723 14.1966 4.26532C13.3338 5.13341 12.8511 6.3087 12.8549 7.53264C12.8549 7.75996 12.7646 7.97798 12.6038 8.13873C12.4431 8.29947 12.2251 8.38978 11.9977 8.38978C11.7704 8.38978 11.5524 8.29947 11.3916 8.13873C11.2309 7.97798 11.1406 7.75996 11.1406 7.53264C11.1397 6.31041 10.6542 5.13841 9.79051 4.27359C8.92684 3.40877 7.75549 2.92169 6.53327 2.91915Z" fill="#344054"/>
</g>
</svg>
