<svg width="28" height="28" viewBox="0 0 28 28" fill="none" xmlns="http://www.w3.org/2000/svg">
<path d="M14.4808 3.1998C15.6802 3.18176 16.8707 3.19114 18.0605 3.18176C18.1001 4.64723 18.7037 5.96622 19.6642 6.9432L19.6628 6.94175C20.6965 7.85884 22.0416 8.4534 23.5245 8.55442L23.545 8.55586V12.1896C22.1442 12.1549 20.8269 11.8367 19.6393 11.2898L19.6994 11.3143C19.125 11.0423 18.6393 10.7631 18.1777 10.4514L18.2158 10.4759C18.207 13.1088 18.2246 15.7418 18.1975 18.3653C18.122 19.7023 17.6707 20.9218 16.9469 21.9399L16.9615 21.9175C15.7512 23.6247 13.7907 24.7453 11.5613 24.8116H11.551C11.4609 24.816 11.3547 24.8181 11.2477 24.8181C9.98023 24.8181 8.79556 24.4703 7.78598 23.8664L7.81529 23.883C5.97783 22.7942 4.71037 20.9311 4.47593 18.7643L4.473 18.7347C4.45468 18.2838 4.44589 17.8328 4.46421 17.3912C4.8232 13.9429 7.75668 11.2754 11.3224 11.2754C11.7232 11.2754 12.1159 11.3093 12.4976 11.3735L12.4565 11.3677C12.4749 12.7019 12.4199 14.0367 12.4199 15.3709C12.11 15.2605 11.7525 15.1963 11.3796 15.1963C10.011 15.1963 8.84684 16.0578 8.41605 17.2606L8.40946 17.2823C8.31202 17.5904 8.2556 17.9447 8.2556 18.3112C8.2556 18.4598 8.26513 18.607 8.28271 18.7513L8.28125 18.734C8.52448 20.2103 9.80953 21.3244 11.3591 21.3244C11.4037 21.3244 11.4477 21.3237 11.4917 21.3215H11.4851C12.5569 21.2898 13.4874 20.7219 14.0134 19.8827L14.0207 19.8697C14.2163 19.6013 14.3504 19.2766 14.3951 18.9238L14.3958 18.9137C14.4874 17.2996 14.4508 15.6949 14.4596 14.0808C14.4684 10.447 14.4508 6.82198 14.4779 3.19764L14.4808 3.1998Z" fill="black"/>
</svg>
